<svg width="38" height="46" viewBox="0 0 38 46" fill="none" xmlns="http://www.w3.org/2000/svg">
<path d="M34.1499 26.1219H32.0117V19.0259H29.0559C28.1244 20.9636 26.2229 22.3505 23.9837 22.5493V29.6699H16.8631C16.5828 32.8267 13.9425 35.3139 10.7236 35.3542V40.314H17.8197V42.4521C17.8197 44.4116 19.4082 46.0002 21.3677 46.0002C23.3272 46.0002 24.9157 44.4116 24.9157 42.4521V40.314H32.0117V33.218H34.1499C36.1094 33.218 37.6979 31.6295 37.6979 29.67C37.6979 27.7105 36.1094 26.1219 34.1499 26.1219Z" fill="#FF733F"/>
<path d="M10.644 32.6606C12.6035 32.6606 14.1921 31.072 14.1921 29.1126V26.9744H21.2881V19.8783H23.4263C25.3858 19.8783 26.9743 18.2898 26.9743 16.3303C26.9743 14.3708 25.3858 12.7823 23.4263 12.7823H21.2881V5.6862H14.1921V3.54801C14.1921 1.58852 12.6036 0 10.644 0C8.68455 0 7.09603 1.58852 7.09603 3.54801V5.6862H0V12.7822H2.13819C4.09768 12.7822 5.6862 14.3708 5.6862 16.3302C5.6862 18.2897 4.09768 19.8783 2.13819 19.8783H0V26.9743H7.09603V29.1125C7.09603 31.072 8.68455 32.6606 10.644 32.6606Z" fill="#FF733F"/>
</svg>
