<svg width="125" height="125" viewBox="0 0 125 125" fill="none" xmlns="http://www.w3.org/2000/svg">
<rect width="125" height="125" rx="20" fill="#FAF8EC"/>
<path d="M65.4092 15.9019C65.6255 14.819 66.6372 14.8849 66.7246 14.9175C67.7325 15.2984 67.4037 16.5051 68.001 17.7886C74.9369 32.6681 94.021 41.4783 97.4316 41.6782L97.4297 41.6821C97.5752 41.896 97.8456 42.0309 97.9912 42.2446C98.1592 42.4932 98.2263 42.3326 101.289 43.6343C102.866 44.3045 102.515 45.8655 102.555 46.1079C102.581 46.3603 102.56 46.3613 102.756 49.2837C102.025 48.8866 102.021 48.703 101.233 49.0044C100.496 49.2855 96.1116 50.9601 91.5088 49.9253C87.6622 49.0616 86.1948 47.1429 84.5879 47.9634C84.0634 48.2323 80.3676 50.1229 77.6816 50.3003C69.8558 50.8157 67.957 47.827 66.7139 47.6128C65.1758 47.348 64.6714 50.2029 57.5469 50.3394C50.671 50.4697 48.9536 47.2302 47.1338 47.8491C43.6266 49.0389 40.328 52.0974 30.4727 48.6851C27.5704 47.6787 27.8556 46.6173 26.4707 46.8169C23.6454 47.2224 24.9837 48.7177 24.6328 56.7905C24.5936 57.6705 24.3676 57.6337 23.541 57.5991C22.2625 57.5482 22.643 56.9478 22.6543 55.5464C22.7196 47.6155 22.4305 45.8554 23.5225 45.3481C24.3573 44.9628 37.3189 42.8517 48.9854 34.938C53.745 31.709 58.9318 27.6076 62.8496 21.6978C64.6042 19.0514 64.7652 19.1084 65.4092 15.9019ZM67.3867 25.4526C66.9818 27.9132 67.437 27.9094 67.4893 30.4028C67.7786 44.1047 66.6831 44.9303 68.9619 46.3257C75.2435 50.1753 82.3239 46.9827 82.707 46.5132C83.4275 45.627 81.7482 44.9847 78.9521 42.2202C72.9774 36.3103 72.6762 34.7273 69.8223 30.2739C68.669 28.4751 68.1578 25.8863 67.8125 25.5806C67.6987 25.4787 67.5006 25.5543 67.3867 25.4526ZM65.7012 25.9819C65.7105 25.876 65.8277 24.4109 65.083 24.8345C64.4092 25.2175 65.5647 28.3693 58.6475 37.2739C52.7007 44.9278 48.2584 45.5549 51.1758 46.8384C51.4053 46.9402 51.6406 47.0305 51.8701 47.1323C52.6684 47.3794 58.4767 49.9146 64.4395 46.0913C65.6264 45.3295 65.3984 44.9355 65.3984 34.811C65.3984 30.3822 65.3428 30.3983 65.7012 25.9819ZM69.6504 24.9067C69.1283 25.1148 69.5516 25.9455 69.5908 26.0229C75.7875 38.1684 83.4887 43.4038 85.0439 44.4614C85.9361 45.0664 85.8915 45.1034 86.8096 45.6899C92.8114 49.5213 100.965 47.3372 101.423 46.9517C101.718 46.7031 101.581 46.085 101.876 45.8364H101.875C101.173 45.4208 101.275 45.0684 96.6777 43.6606C93.7783 42.7741 83.2034 38.3842 76.3965 31.8491C73.6172 29.1804 73.4562 29.3596 70.8711 25.8882C70.7933 25.7846 70.0271 24.7561 69.6504 24.9067ZM62.7422 25.4604C62.7198 25.4604 61.9615 26.1898 61.5957 26.6665C54.2154 36.2555 39.6623 43.4369 30.6377 45.688L30.6396 45.6899C30.7048 46.4436 30.6731 46.4538 30.71 46.5044C30.7958 46.6226 31.5396 46.7976 31.6143 46.8159C35.0039 47.6145 40.012 49.2157 46.1396 45.7261C53.8424 41.34 58.2622 35.1024 62.6895 27.2554C63.682 25.4981 62.8734 25.4625 62.7422 25.4604Z" fill="#B5CB62"/>
<path fill-rule="evenodd" clip-rule="evenodd" d="M53.3831 54.8551C51.9179 54.5821 51.9478 54.5292 50.4527 54.3906C48.3155 54.193 48.7355 55.6232 48.7653 60.1376C48.8139 67.5857 48.756 71.3098 48.7877 86.5278C48.8232 104.003 48.8773 104.021 49.26 105.39C50.9473 111.435 55.2273 108.071 54.8745 110.355C54.6953 111.52 53.5213 110.494 34.9045 111.001C34.7906 111.005 33.6539 111.036 33.5755 110.465C33.3216 108.603 36.659 110.457 38.6898 107.098C39.9665 104.985 39.6847 104.751 39.6921 60.7631C39.6921 55.6741 40.183 54.2134 37.7827 54.4782C27.1117 55.6558 25.9563 61.7104 24.0506 68.3517C23.6885 69.6107 22.9325 68.9568 22.8504 68.8855C22.5704 68.643 22.591 67.1966 22.5928 67.0479C22.6712 61.1298 22.5891 53.4637 22.6395 53.1846C22.856 51.9827 23.7165 52.164 29.723 52.1803C64.6029 52.2699 64.8717 51.8462 65.3682 52.6285C65.538 52.8974 65.5585 54.9061 65.5623 55.1057C65.5735 56.1141 65.6911 67.1803 65.6761 67.7181C65.6444 68.9079 64.5749 69.7044 64.056 67.7609C61.4503 58.0026 58.2977 56.436 53.3869 54.8511L53.3831 54.8551Z" fill="#313D28"/>
<path fill-rule="evenodd" clip-rule="evenodd" d="M69.4139 66.1514C69.7704 64.3077 69.8338 61.9486 72.279 58.1472C72.7419 57.428 74.3826 55.6271 75.1087 55.1158C84.6187 48.3991 94.4553 53.8242 95.6293 54.25C97.9942 55.1097 99.4203 52.282 100.193 52.5061C100.662 52.6426 100.622 54.0442 100.619 54.1827C100.238 67.6345 101.175 68.0745 100.234 68.6022C99.116 69.2276 99.5304 68.0501 97.214 62.4314C91.4726 48.5009 78.2165 52.7322 77.0685 61.0685C74.6943 78.2932 103.601 71.5296 102.991 94.3954C102.957 95.6198 102.754 103.3 95.5323 107.37C85.8207 112.842 75.9673 107.621 74.8418 107.224C71.0527 105.885 70.7223 108.933 69.7368 108.921C68.9491 108.911 69.0574 107.648 69.0667 103.198C69.0966 90.7406 68.8819 90.1885 69.7461 90.1641C70.7876 90.1315 70.0205 91.0116 72.796 98.0868C78.1866 111.83 93.2794 110.182 94.8174 100.627C96.2789 91.5596 89.621 88.8277 81.7629 84.4986C72.8763 79.6032 69.1283 76.3416 69.4176 66.1534L69.4139 66.1514Z" fill="#B5CB62"/>
</svg>
