<svg width="355" height="113" viewBox="0 0 355 113" fill="none" xmlns="http://www.w3.org/2000/svg">
<path fill-rule="evenodd" clip-rule="evenodd" d="M78.1498 72.3811C78.1746 53.4406 78.0301 53.4489 78.0012 53.2672C76.9525 47.0246 71.5459 48.8 72.9332 46.9957C73.1169 46.7562 76.201 46.5374 83.0485 45.1337C86.3081 44.4648 87.6851 43.4801 87.7367 45.6208C87.7945 47.9866 87.6066 49.3697 87.9018 49.6525C88.4984 50.2244 88.7214 49.8198 88.8535 49.6938C94.7266 44.1593 104.249 42.2023 109.528 47.7678C114.623 53.1392 111.349 69.7883 112.701 79.4268C113.471 84.92 117.752 82.5646 117.468 84.501C117.387 85.0522 117.117 84.9365 107.854 84.9262C97.9883 84.9159 97.6642 85.1678 97.5341 84.5361C97.2245 83.0373 98.0998 83.5121 99.5964 83.3057C102.984 82.835 102.868 79.1522 102.885 76.2022C102.988 57.6581 102.846 56.8799 102.546 55.2284C100.717 45.1233 88.7048 50.9448 87.9142 53.2032C87.5178 54.3366 87.7408 76.6791 87.8461 79.4082C88.0092 83.669 91.0995 83.2706 91.8447 83.4502C92.1523 83.5245 93.6366 85.1203 90.6598 85.0129C81.0461 84.6661 74.1387 85.1595 73.6061 84.8746C73.4699 84.8024 72.2395 83.8053 74.7746 83.3511C78.4677 82.6926 78.1023 78.2522 78.1477 72.3832L78.1498 72.3811Z" fill="#313D28"/>
<path fill-rule="evenodd" clip-rule="evenodd" d="M34.0548 28.1876C32.4342 27.911 32.4673 27.8573 30.8137 27.717C28.45 27.5167 28.9145 28.9659 28.9475 33.5405C29.0012 41.0878 28.9372 44.8615 28.9723 60.2822C29.0115 77.9903 29.0714 78.0089 29.4946 79.3961C31.3608 85.5211 36.0944 82.1128 35.7042 84.4269C35.506 85.6077 34.2075 84.5673 13.6176 85.0813C13.4917 85.0855 12.2345 85.1164 12.1478 84.5384C11.8671 82.6516 15.5581 84.5302 17.8042 81.126C19.2162 78.9853 18.9044 78.7479 18.9127 34.1743C18.9127 29.0175 19.4556 27.5374 16.8009 27.8057C4.99895 28.9989 3.7211 35.1342 1.61339 41.864C1.21291 43.1398 0.376847 42.4771 0.286016 42.4049C-0.0236381 42.1592 -0.000931151 40.6935 0.00113321 40.5428C0.0878362 34.5459 -0.00300811 26.7777 0.0527296 26.4949C0.292195 25.2769 1.24388 25.4606 7.88698 25.4771C46.4636 25.568 46.7609 25.1386 47.31 25.9313C47.4979 26.2038 47.5206 28.2392 47.5247 28.4415C47.5371 29.4634 47.6671 40.677 47.6506 41.222C47.6155 42.4276 46.4327 43.2347 45.8588 41.2653C42.9769 31.3771 39.4902 29.7896 34.0589 28.1835L34.0548 28.1876Z" fill="#313D28"/>
<path fill-rule="evenodd" clip-rule="evenodd" d="M326.105 37.0778C325.725 45.2651 325.929 45.4261 326.483 45.8596C327.368 46.5532 332.267 45.3827 334.73 46.5202C335.231 46.7514 335.91 47.0652 341.623 46.355C343.763 46.0887 348.334 44.8687 348.621 44.9843C349.475 45.3291 349.279 45.649 349.308 56.1958C349.374 81.2159 348.718 82.4937 351.909 83.4289C353.016 83.753 354.388 83.7241 354.494 84.1514C354.892 85.7513 353.621 84.9606 342.935 85.1691C339.734 85.231 339.752 85.1216 336.569 85.2372C335.017 85.293 334.116 85.6253 334.533 84.1245C334.93 82.6939 339.513 85.7038 339.647 77.8427C339.668 76.6784 339.641 56.6706 339.556 54.2946C339.395 49.8273 338.747 49.6023 335.256 48.6795C334.063 48.3637 334.164 47.893 332.11 47.8868C327.385 47.8682 326.286 47.5854 326.068 49.1564C326.041 49.3545 325.733 77.659 326.224 80.4252C327.065 85.1381 333.264 82.7951 332.147 84.8718C331.765 85.582 324.969 84.9854 320.011 85.1526C316.499 85.2703 316.51 85.0101 313.004 85.2414C312.816 85.2537 310.864 85.3838 310.686 84.7728C310.094 82.7187 316.192 85.4561 316.417 78.495C316.435 77.9294 316.555 49.1688 316.33 48.502C315.812 46.9558 310.333 48.8694 310.975 46.578C311.237 45.6408 315.851 46.8505 316.328 45.4261C316.863 43.8262 315.593 33.1927 324.99 27.3423C327.378 25.8539 335.919 22.9741 341.558 27.0574C343.043 28.133 345.803 26.6074 348.396 29.675C350.935 32.6828 350.051 40.4159 342.915 39.8895C340.438 39.7078 335.797 37.117 338.105 30.8373C338.706 29.2064 338.867 28.9711 337.601 27.8027C335.723 26.0665 328.547 25.2222 326.866 31.9623C326.07 35.16 326.146 36.3904 326.101 37.0819L326.105 37.0778Z" fill="#B5CB62"/>
<path fill-rule="evenodd" clip-rule="evenodd" d="M231.789 42.214C232.183 40.3457 232.253 37.9552 234.957 34.1031C235.469 33.3744 237.284 31.5495 238.087 31.0313C248.605 24.2252 259.484 29.7225 260.783 30.154C263.398 31.0252 264.975 28.1598 265.83 28.3869C266.348 28.5252 266.305 29.9455 266.301 30.0859C265.879 43.7168 266.916 44.1627 265.875 44.6974C264.639 45.3312 265.097 44.138 262.535 38.4445C256.185 24.3284 241.524 28.6161 240.255 37.0634C237.629 54.5176 269.599 47.6639 268.924 70.8342C268.887 72.0749 268.662 79.8575 260.675 83.9821C249.934 89.527 239.037 84.236 237.792 83.8335C233.601 82.4772 233.236 85.5655 232.146 85.5531C231.275 85.5428 231.394 84.2629 231.405 79.7543C231.438 67.1308 231.2 66.5713 232.156 66.5466C233.308 66.5135 232.46 67.4053 235.529 74.5748C241.491 88.501 258.184 86.8309 259.885 77.1491C261.501 67.9606 254.137 65.1923 245.446 60.8056C235.618 55.8449 231.473 52.5399 231.793 42.216L231.789 42.214Z" fill="#B5CB62"/>
<path d="M272.691 59.3313C274.704 49.6621 284.437 43.3122 295.774 45.5891C308.786 48.2026 314.31 61.5135 309.234 75.3157C305.814 84.6114 292.408 90.3117 280.494 83.6418C279.538 82.9895 279.556 83.001 278.599 82.3342C276.136 80.6183 272.078 74.9829 271.815 68.2825C271.603 62.8347 272.268 61.3605 272.691 59.3313ZM293.941 47.1624C290.82 46.4956 282.817 45.2846 282.121 62.5754C281.215 85.0774 288.952 84.5809 290.105 84.719C296.94 85.5426 298.677 80.4552 299.049 79.7776C302.614 69.8914 301.84 48.8469 293.941 47.1624Z" fill="#B5CB62"/>
<path d="M146.073 25.3557C152.456 24.082 153.059 23.2932 153.305 24.5256C153.507 25.5496 153.166 70.4737 153.457 77.4885C153.709 83.6032 158.055 83.0586 158.201 83.8245C158.469 85.232 155.585 84.6441 152.425 84.6565C145.704 84.6813 143.8 86.4788 143.905 83.2092C143.914 82.9512 144.519 79.5241 142.215 81.9084C136.053 88.2831 119.051 88.7435 117.268 70.4846C114.64 43.5969 136.508 41.125 142.745 47.2268C143.3 47.7697 144.04 47.5596 143.896 46.2737C143.763 45.0908 143.815 45.0947 143.846 34.8411C143.629 31.8787 143.652 31.8783 143.623 31.6223C143.582 31.3754 143.969 29.7974 142.224 29.1165C138.836 27.7953 138.761 27.958 138.575 27.7083C138.414 27.4915 138.389 27.1924 138.229 26.9758L138.227 26.9739C138.644 26.8046 138.594 26.7116 139.077 26.6311C142.601 26.0345 142.58 26.0535 146.073 25.3557ZM143.722 51.9641C143.488 50.4504 138.284 43.4433 132.011 48.1428C128.031 51.1258 125.814 62.862 127.771 71.6995C129.174 78.0412 131.42 81.2144 137.141 81.5344C137.687 81.4993 140.991 81.2882 143.266 78.5432C144.149 77.478 143.678 75.2394 143.835 64.7405C143.851 63.7172 144 53.7641 143.722 51.9641Z" fill="#313D28"/>
<path d="M44.4143 49.0765C52.5003 41.36 72.7715 42.0863 72.8068 61.5569C72.811 63.772 71.5931 63.0415 61.3684 63.2005C51.5293 63.3532 48.6529 62.9839 48.2062 63.6048C47.459 64.6473 48.0619 78.9519 58.8605 80.4114C69.4339 81.8397 71.4512 73.6561 72.1428 73.5198C74.0413 73.149 72.9985 76.6935 68.3459 81.2718C61.2115 88.2885 51.3916 85.9869 46.883 83.553C41.2349 80.5019 37.9645 73.5324 38.1564 65.3782L38.1584 65.3743C38.1852 64.4929 38.3674 58.5002 40.4543 54.6048C40.7123 54.1259 42.3767 51.019 44.4143 49.0765ZM58.2219 46.1614C49.4655 44.0213 47.4256 58.7844 48.0695 60.8948C48.2904 61.6215 48.5673 61.6939 57.549 61.5267C62.1154 61.442 64.8799 61.0807 62.8879 51.9378C62.5369 50.823 61.7499 47.0243 58.2219 46.1614Z" fill="#313D28"/>
<path d="M159.854 53.9255C159.563 44.2623 176.657 42.2845 183.548 45.7898C192.546 50.3644 189.385 57.7385 190.031 77.4773C190.209 82.9042 193.607 82.1001 194.974 81.1609C197.003 79.7634 194.891 71.2341 196.305 70.9705C197.83 70.6876 197.003 73.1426 199.191 77.325C204.107 86.7197 213.272 85.4085 215.432 80.6501C219.143 72.4715 207.925 69.7632 202.263 66.3777C191.46 59.9225 195.244 47.7579 202.808 45.2556C209.795 42.9456 215.219 45.14 216.158 45.3464C219.915 46.1762 220.227 43.9468 221.168 45.0203C221.356 45.2356 221.381 47.346 221.383 47.5486C221.472 55.259 221.571 55.2715 221.403 55.9197C221.362 56.0775 220.45 57.9665 219.544 55.1062C215.614 42.708 206.062 44.9143 203.962 48.8054C199.718 56.6686 209.748 58.7827 217.298 62.9568C228.03 68.8939 224.878 82.8702 214.854 85.2566C207.244 87.067 201.043 84.3867 200.869 84.3289L200.871 84.3269C199.553 83.8792 199.581 83.8116 198.917 83.7332C197.414 83.5556 196.119 85.4437 195.787 84.4363C195.653 84.0338 195.987 83.5343 195.785 83.1628C195.494 82.6282 192.272 84.9488 189.293 85.4382C181.38 86.7384 181.151 81.7123 180.944 81.3796C180.854 81.2351 180.054 81.0309 179.479 81.5945C178.594 82.4582 173.088 87.8283 164.477 85.2605C159.405 83.7493 157.75 78.2637 157.812 75.5574C158.045 65.488 167.827 64.3218 175.946 62.6394C180.323 61.7332 180.587 61.3881 180.626 59.6521C180.803 52.1598 180.187 50.1937 179.941 49.4089C178.399 44.4939 171.026 44.5553 169.471 48.7703C168.705 50.8489 169.52 53.7496 169.549 53.9275C170.68 60.6614 160.061 60.7358 159.854 53.9255ZM180.67 64.7283C180.649 62.7488 179.695 63.2839 177.839 63.9734C173.189 65.7029 173.242 65.8204 172.06 66.489C171.903 66.6005 166.945 68.9811 167.507 74.947C168.246 82.7792 177.03 82.7129 180.273 78.6296C180.965 77.7587 180.806 77.623 180.67 64.7283Z" fill="#313D28"/>
<path d="M102.538 1.01147C102.778 -0.0867639 103.899 -0.0186254 103.994 0.0144043C105.109 0.400542 104.746 1.62314 105.406 2.92358C113.078 18.0013 134.458 26.7662 138.229 26.9685L138.228 26.9734C138.388 27.1901 138.413 27.4892 138.574 27.7058C138.76 27.9574 138.835 27.7952 142.222 29.114C143.966 29.7932 143.578 31.3742 143.621 31.6199C143.65 31.8758 143.627 31.8761 143.844 34.8376C143.035 34.4353 143.031 34.2501 142.16 34.5554C141.345 34.8403 136.495 36.5367 131.404 35.488C127.15 34.6127 125.527 32.6689 123.75 33.5007C123.17 33.7732 119.082 35.6883 116.111 35.8679C107.456 36.3901 105.356 33.362 103.981 33.1453C102.28 32.8769 101.723 35.7686 93.8438 35.907C86.2387 36.0391 84.3389 32.757 82.3262 33.3845C78.4473 34.5901 74.7992 37.689 63.8994 34.2312C60.6898 33.2114 61.0053 32.1363 59.4736 32.3386C56.3486 32.7495 57.8285 34.2645 57.4404 42.4451C57.3971 43.3369 57.1469 43.2995 56.2324 43.2644C54.819 43.2127 55.2395 42.6042 55.252 41.1843C55.3242 33.148 55.0044 31.3634 56.2119 30.8494C57.1326 30.4592 71.4697 28.3206 84.374 20.3005C89.6381 17.0285 95.3749 12.8732 99.708 6.88452C101.649 4.20292 101.826 4.26076 102.538 1.01147ZM104.727 10.6892C104.279 13.1829 104.782 13.1791 104.84 15.7058C105.16 29.5907 103.948 30.4265 106.469 31.8406C113.417 35.7422 121.25 32.5058 121.671 32.031C122.467 31.1331 120.609 30.4826 117.517 27.6814C110.909 21.6928 110.576 20.0886 107.42 15.5759C106.145 13.7538 105.579 11.1315 105.197 10.8201C105.071 10.7169 104.852 10.7924 104.727 10.6892ZM102.862 11.2263C102.873 11.119 103.002 9.63482 102.179 10.0642C101.434 10.4527 102.71 13.6461 95.0605 22.6687C88.4837 30.4243 83.5706 31.0606 86.7969 32.3611C87.0508 32.4643 87.3115 32.5547 87.5654 32.658C88.4479 32.9082 94.8718 35.4777 101.467 31.6033C102.779 30.8313 102.527 30.4319 102.527 20.1726C102.527 15.6851 102.466 15.7014 102.862 11.2263ZM107.23 10.1365C106.653 10.347 107.12 11.1877 107.164 11.2673C114.017 23.5743 122.535 28.8801 124.255 29.9519C125.242 30.565 125.192 30.6025 126.208 31.197C132.847 35.0801 141.866 32.8645 142.37 32.4744C142.696 32.2225 142.546 31.5973 142.872 31.3455H142.87C142.094 30.9243 142.207 30.5669 137.122 29.1404C133.916 28.2421 122.22 23.7937 114.691 17.1716C111.618 14.4673 111.44 14.6483 108.581 11.1306C108.496 11.0269 107.647 9.98376 107.23 10.1365ZM99.5889 10.698C99.5544 10.707 98.7245 11.4396 98.3223 11.9197C90.1598 21.6366 74.0632 28.913 64.082 31.1941L64.084 31.197C64.1562 31.9625 64.1218 31.9706 64.1631 32.0222C64.2581 32.1419 65.0795 32.32 65.1621 32.3386C68.9109 33.1478 74.4496 34.7701 81.2266 31.2341C89.7461 26.7896 94.6346 20.4682 99.5312 12.5164C100.629 10.7348 99.7334 10.7001 99.5889 10.698Z" fill="#B5CB62"/>
<path d="M37.9613 109.092L41.1711 100.136H42.5656L45.7754 109.092H44.5131L43.7798 106.988H39.9569L39.2236 109.092H37.9613ZM40.3296 105.906H43.4071L41.7 100.989H42.0367L40.3296 105.906ZM48.8153 109.092V99.9917H49.9333V109.092H48.8153ZM56.0079 109.236C55.543 109.236 55.1223 109.128 54.7456 108.912C54.377 108.695 54.0884 108.395 53.8801 108.01C53.6797 107.617 53.5795 107.169 53.5795 106.664V102.612H54.6975V106.543C54.6975 106.864 54.7616 107.145 54.8899 107.385C55.0261 107.625 55.2105 107.814 55.4429 107.95C55.6833 108.086 55.9558 108.154 56.2603 108.154C56.5649 108.154 56.8334 108.086 57.0658 107.95C57.3062 107.814 57.4905 107.617 57.6188 107.361C57.755 107.104 57.8231 106.8 57.8231 106.447V102.612H58.9532V109.092H57.8592V107.83L58.0395 107.938C57.8873 108.347 57.6268 108.667 57.2581 108.9C56.8975 109.124 56.4807 109.236 56.0079 109.236ZM65.8184 111.737C65.3616 111.737 64.9368 111.665 64.5441 111.52C64.1595 111.376 63.8269 111.176 63.5464 110.919C63.2739 110.671 63.0655 110.378 62.9212 110.042L63.9671 109.561C64.0793 109.865 64.2917 110.122 64.6043 110.33C64.9248 110.547 65.3255 110.655 65.8064 110.655C66.1751 110.655 66.5077 110.583 66.8042 110.438C67.1087 110.302 67.3492 110.094 67.5255 109.813C67.7018 109.541 67.79 109.208 67.79 108.816V107.361L67.9943 107.577C67.7699 108.018 67.4453 108.355 67.0206 108.587C66.6038 108.82 66.143 108.936 65.6381 108.936C65.029 108.936 64.484 108.796 64.0032 108.515C63.5223 108.226 63.1456 107.838 62.8731 107.349C62.6007 106.852 62.4644 106.303 62.4644 105.702C62.4644 105.093 62.6007 104.544 62.8731 104.055C63.1456 103.566 63.5183 103.181 63.9911 102.901C64.472 102.612 65.017 102.468 65.6261 102.468C66.131 102.468 66.5878 102.584 66.9965 102.817C67.4133 103.041 67.7459 103.354 67.9943 103.754L67.826 104.055V102.612H68.92V108.816C68.92 109.377 68.7878 109.877 68.5233 110.318C68.2588 110.759 67.8901 111.104 67.4173 111.352C66.9525 111.609 66.4195 111.737 65.8184 111.737ZM65.7343 107.854C66.119 107.854 66.4636 107.758 66.7681 107.565C67.0807 107.373 67.3291 107.116 67.5135 106.796C67.6978 106.467 67.79 106.103 67.79 105.702C67.79 105.309 67.6978 104.949 67.5135 104.62C67.3291 104.291 67.0807 104.031 66.7681 103.839C66.4636 103.646 66.119 103.55 65.7343 103.55C65.3416 103.55 64.9849 103.646 64.6644 103.839C64.3438 104.031 64.0913 104.291 63.907 104.62C63.7307 104.941 63.6425 105.301 63.6425 105.702C63.6425 106.103 63.7307 106.467 63.907 106.796C64.0913 107.116 64.3398 107.373 64.6523 107.565C64.9729 107.758 65.3336 107.854 65.7343 107.854ZM74.993 109.236C74.5282 109.236 74.1075 109.128 73.7308 108.912C73.3621 108.695 73.0736 108.395 72.8652 108.01C72.6649 107.617 72.5647 107.169 72.5647 106.664V102.612H73.6827V106.543C73.6827 106.864 73.7468 107.145 73.875 107.385C74.0113 107.625 74.1956 107.814 74.428 107.95C74.6685 108.086 74.941 108.154 75.2455 108.154C75.55 108.154 75.8185 108.086 76.0509 107.95C76.2914 107.814 76.4757 107.617 76.6039 107.361C76.7402 107.104 76.8083 106.8 76.8083 106.447V102.612H77.9383V109.092H76.8444V107.83L77.0247 107.938C76.8724 108.347 76.612 108.667 76.2433 108.9C75.8826 109.124 75.4659 109.236 74.993 109.236ZM84.6954 109.236C84.0703 109.236 83.5133 109.088 83.0244 108.792C82.5355 108.495 82.1508 108.09 81.8703 107.577C81.5898 107.056 81.4496 106.475 81.4496 105.834C81.4496 105.185 81.5858 104.608 81.8583 104.103C82.1388 103.598 82.5155 103.201 82.9883 102.913C83.4692 102.616 84.0062 102.468 84.5992 102.468C85.0801 102.468 85.5049 102.556 85.8735 102.733C86.2502 102.901 86.5668 103.133 86.8232 103.43C87.0877 103.718 87.2881 104.051 87.4243 104.428C87.5686 104.796 87.6407 105.181 87.6407 105.582C87.6407 105.67 87.6327 105.77 87.6166 105.882C87.6086 105.986 87.5966 106.087 87.5806 106.183H82.267V105.221H86.9314L86.4025 105.654C86.4746 105.237 86.4345 104.864 86.2823 104.536C86.13 104.207 85.9056 103.947 85.609 103.754C85.3125 103.562 84.9759 103.466 84.5992 103.466C84.2226 103.466 83.8779 103.562 83.5654 103.754C83.2528 103.947 83.0084 104.223 82.8321 104.584C82.6638 104.937 82.5956 105.357 82.6277 105.846C82.5956 106.319 82.6678 106.736 82.8441 107.096C83.0284 107.449 83.2849 107.726 83.6135 107.926C83.9501 108.118 84.3147 108.214 84.7074 108.214C85.1402 108.214 85.5049 108.114 85.8014 107.914C86.0979 107.714 86.3384 107.457 86.5227 107.145L87.4604 107.625C87.3321 107.922 87.1318 108.194 86.8593 108.443C86.5948 108.683 86.2782 108.876 85.9096 109.02C85.5489 109.164 85.1442 109.236 84.6954 109.236ZM91.1421 109.092V99.9917H92.2601V109.092H91.1421ZM103.105 109.236C102.496 109.236 101.947 109.088 101.458 108.792C100.978 108.495 100.597 108.09 100.316 107.577C100.036 107.064 99.8956 106.491 99.8956 105.858C99.8956 105.209 100.036 104.632 100.316 104.127C100.597 103.614 100.978 103.209 101.458 102.913C101.947 102.616 102.496 102.468 103.105 102.468C103.642 102.468 104.119 102.584 104.536 102.817C104.953 103.041 105.281 103.346 105.522 103.73L105.341 104.007V99.9917H106.471V109.092H105.377V107.71L105.522 107.902C105.297 108.327 104.969 108.655 104.536 108.888C104.111 109.12 103.634 109.236 103.105 109.236ZM103.202 108.154C103.61 108.154 103.975 108.054 104.296 107.854C104.616 107.653 104.869 107.381 105.053 107.036C105.245 106.684 105.341 106.291 105.341 105.858C105.341 105.417 105.245 105.025 105.053 104.68C104.869 104.327 104.616 104.051 104.296 103.851C103.975 103.65 103.61 103.55 103.202 103.55C102.801 103.55 102.436 103.654 102.108 103.863C101.787 104.063 101.535 104.336 101.35 104.68C101.166 105.017 101.074 105.409 101.074 105.858C101.074 106.291 101.166 106.684 101.35 107.036C101.535 107.381 101.787 107.653 102.108 107.854C102.428 108.054 102.793 108.154 103.202 108.154ZM113.227 109.236C112.602 109.236 112.045 109.088 111.556 108.792C111.067 108.495 110.682 108.09 110.402 107.577C110.121 107.056 109.981 106.475 109.981 105.834C109.981 105.185 110.117 104.608 110.39 104.103C110.67 103.598 111.047 103.201 111.52 102.913C112.001 102.616 112.538 102.468 113.131 102.468C113.612 102.468 114.036 102.556 114.405 102.733C114.782 102.901 115.098 103.133 115.355 103.43C115.619 103.718 115.82 104.051 115.956 104.428C116.1 104.796 116.172 105.181 116.172 105.582C116.172 105.67 116.164 105.77 116.148 105.882C116.14 105.986 116.128 106.087 116.112 106.183H110.799V105.221H115.463L114.934 105.654C115.006 105.237 114.966 104.864 114.814 104.536C114.661 104.207 114.437 103.947 114.141 103.754C113.844 103.562 113.507 103.466 113.131 103.466C112.754 103.466 112.409 103.562 112.097 103.754C111.784 103.947 111.54 104.223 111.364 104.584C111.195 104.937 111.127 105.357 111.159 105.846C111.127 106.319 111.199 106.736 111.376 107.096C111.56 107.449 111.816 107.726 112.145 107.926C112.482 108.118 112.846 108.214 113.239 108.214C113.672 108.214 114.036 108.114 114.333 107.914C114.629 107.714 114.87 107.457 115.054 107.145L115.992 107.625C115.864 107.922 115.663 108.194 115.391 108.443C115.126 108.683 114.81 108.876 114.441 109.02C114.08 109.164 113.676 109.236 113.227 109.236ZM123.927 109.092V100.136H125.009L128.363 104.909H127.81L131.14 100.136H132.222V109.092H131.032V101.627L131.453 101.759L128.123 106.447H128.027L124.733 101.759L125.106 101.627V109.092H123.927ZM139.104 109.236C138.479 109.236 137.922 109.088 137.433 108.792C136.944 108.495 136.56 108.09 136.279 107.577C135.999 107.056 135.858 106.475 135.858 105.834C135.858 105.185 135.995 104.608 136.267 104.103C136.548 103.598 136.924 103.201 137.397 102.913C137.878 102.616 138.415 102.468 139.008 102.468C139.489 102.468 139.914 102.556 140.282 102.733C140.659 102.901 140.976 103.133 141.232 103.43C141.497 103.718 141.697 104.051 141.833 104.428C141.977 104.796 142.05 105.181 142.05 105.582C142.05 105.67 142.042 105.77 142.026 105.882C142.018 105.986 142.006 106.087 141.989 106.183H136.676V105.221H141.34L140.811 105.654C140.883 105.237 140.843 104.864 140.691 104.536C140.539 104.207 140.314 103.947 140.018 103.754C139.721 103.562 139.385 103.466 139.008 103.466C138.631 103.466 138.287 103.562 137.974 103.754C137.662 103.947 137.417 104.223 137.241 104.584C137.073 104.937 137.005 105.357 137.037 105.846C137.005 106.319 137.077 106.736 137.253 107.096C137.437 107.449 137.694 107.726 138.022 107.926C138.359 108.118 138.724 108.214 139.116 108.214C139.549 108.214 139.914 108.114 140.21 107.914C140.507 107.714 140.747 107.457 140.932 107.145L141.869 107.625C141.741 107.922 141.541 108.194 141.268 108.443C141.004 108.683 140.687 108.876 140.318 109.02C139.958 109.164 139.553 109.236 139.104 109.236ZM147.871 109.236C147.222 109.236 146.657 109.076 146.176 108.755C145.695 108.435 145.355 108.002 145.154 107.457L146.044 107.024C146.228 107.409 146.481 107.714 146.801 107.938C147.122 108.162 147.478 108.275 147.871 108.275C148.224 108.275 148.516 108.19 148.749 108.022C148.981 107.854 149.097 107.633 149.097 107.361C149.097 107.169 149.041 107.016 148.929 106.904C148.825 106.784 148.697 106.692 148.544 106.628C148.392 106.555 148.252 106.503 148.124 106.471L147.15 106.195C146.565 106.027 146.136 105.786 145.864 105.474C145.599 105.161 145.467 104.796 145.467 104.38C145.467 103.995 145.563 103.662 145.755 103.382C145.956 103.093 146.224 102.869 146.561 102.709C146.905 102.548 147.29 102.468 147.715 102.468C148.284 102.468 148.793 102.612 149.242 102.901C149.698 103.189 150.023 103.594 150.215 104.115L149.302 104.536C149.157 104.199 148.941 103.935 148.653 103.742C148.364 103.542 148.039 103.442 147.679 103.442C147.35 103.442 147.09 103.526 146.897 103.694C146.705 103.855 146.609 104.059 146.609 104.307C146.609 104.492 146.657 104.644 146.753 104.764C146.849 104.876 146.966 104.965 147.102 105.029C147.238 105.085 147.37 105.133 147.498 105.173L148.556 105.486C149.085 105.638 149.494 105.874 149.783 106.195C150.079 106.515 150.227 106.9 150.227 107.349C150.227 107.71 150.127 108.034 149.927 108.323C149.726 108.611 149.45 108.836 149.097 108.996C148.745 109.156 148.336 109.236 147.871 109.236ZM155.634 109.236C155.209 109.236 154.833 109.16 154.504 109.008C154.183 108.848 153.931 108.631 153.747 108.359C153.562 108.078 153.47 107.758 153.47 107.397C153.47 107.052 153.542 106.744 153.686 106.471C153.839 106.191 154.071 105.954 154.384 105.762C154.704 105.57 155.105 105.433 155.586 105.353L157.99 104.957V105.894L155.838 106.255C155.422 106.327 155.117 106.459 154.925 106.652C154.74 106.844 154.648 107.08 154.648 107.361C154.648 107.625 154.752 107.846 154.961 108.022C155.177 108.198 155.446 108.287 155.766 108.287C156.175 108.287 156.528 108.202 156.824 108.034C157.129 107.858 157.365 107.621 157.533 107.325C157.71 107.028 157.798 106.7 157.798 106.339V104.692C157.798 104.34 157.666 104.055 157.401 103.839C157.145 103.614 156.804 103.502 156.379 103.502C156.011 103.502 155.682 103.598 155.394 103.791C155.113 103.975 154.905 104.223 154.768 104.536L153.795 104.031C153.915 103.734 154.107 103.47 154.372 103.238C154.636 102.997 154.945 102.809 155.297 102.673C155.65 102.536 156.019 102.468 156.403 102.468C156.9 102.468 157.337 102.564 157.714 102.757C158.09 102.941 158.383 103.201 158.591 103.538C158.808 103.867 158.916 104.251 158.916 104.692V109.092H157.822V107.866L158.026 107.938C157.89 108.194 157.706 108.419 157.473 108.611C157.241 108.804 156.968 108.956 156.656 109.068C156.343 109.18 156.003 109.236 155.634 109.236ZM165.013 109.236C164.364 109.236 163.799 109.076 163.318 108.755C162.837 108.435 162.497 108.002 162.296 107.457L163.186 107.024C163.37 107.409 163.623 107.714 163.943 107.938C164.264 108.162 164.62 108.275 165.013 108.275C165.366 108.275 165.658 108.19 165.891 108.022C166.123 107.854 166.239 107.633 166.239 107.361C166.239 107.169 166.183 107.016 166.071 106.904C165.967 106.784 165.839 106.692 165.686 106.628C165.534 106.555 165.394 106.503 165.266 106.471L164.292 106.195C163.707 106.027 163.278 105.786 163.006 105.474C162.741 105.161 162.609 104.796 162.609 104.38C162.609 103.995 162.705 103.662 162.897 103.382C163.098 103.093 163.366 102.869 163.703 102.709C164.047 102.548 164.432 102.468 164.857 102.468C165.426 102.468 165.935 102.612 166.384 102.901C166.84 103.189 167.165 103.594 167.357 104.115L166.444 104.536C166.299 104.199 166.083 103.935 165.795 103.742C165.506 103.542 165.181 103.442 164.821 103.442C164.492 103.442 164.232 103.526 164.039 103.694C163.847 103.855 163.751 104.059 163.751 104.307C163.751 104.492 163.799 104.644 163.895 104.764C163.991 104.876 164.108 104.965 164.244 105.029C164.38 105.085 164.512 105.133 164.64 105.173L165.698 105.486C166.227 105.638 166.636 105.874 166.925 106.195C167.221 106.515 167.369 106.9 167.369 107.349C167.369 107.71 167.269 108.034 167.069 108.323C166.868 108.611 166.592 108.836 166.239 108.996C165.887 109.156 165.478 109.236 165.013 109.236ZM171.069 110.763V110.222C171.317 110.158 171.506 110.034 171.634 109.849C171.762 109.665 171.834 109.413 171.85 109.092H171.309V107.649H172.475V108.671C172.475 109.248 172.355 109.713 172.115 110.066C171.882 110.418 171.534 110.651 171.069 110.763ZM184.89 109.236C184.257 109.236 183.672 109.124 183.135 108.9C182.606 108.667 182.141 108.343 181.74 107.926C181.348 107.509 181.043 107.02 180.827 106.459C180.61 105.898 180.502 105.285 180.502 104.62C180.502 103.947 180.61 103.33 180.827 102.769C181.043 102.208 181.348 101.719 181.74 101.302C182.133 100.885 182.598 100.565 183.135 100.34C183.672 100.108 184.257 99.9917 184.89 99.9917C185.507 99.9917 186.06 100.1 186.549 100.316C187.046 100.533 187.463 100.813 187.799 101.158C188.144 101.502 188.388 101.871 188.532 102.264L187.45 102.757C187.242 102.26 186.918 101.859 186.477 101.555C186.036 101.242 185.507 101.086 184.89 101.086C184.265 101.086 183.708 101.234 183.219 101.53C182.738 101.827 182.361 102.24 182.089 102.769C181.816 103.298 181.68 103.915 181.68 104.62C181.68 105.317 181.816 105.93 182.089 106.459C182.361 106.988 182.738 107.401 183.219 107.698C183.708 107.994 184.265 108.142 184.89 108.142C185.507 108.142 186.036 107.99 186.477 107.686C186.918 107.373 187.242 106.968 187.45 106.471L188.532 106.964C188.388 107.357 188.144 107.726 187.799 108.07C187.463 108.415 187.046 108.695 186.549 108.912C186.06 109.128 185.507 109.236 184.89 109.236ZM193.828 109.236C193.404 109.236 193.027 109.16 192.698 109.008C192.378 108.848 192.125 108.631 191.941 108.359C191.757 108.078 191.664 107.758 191.664 107.397C191.664 107.052 191.737 106.744 191.881 106.471C192.033 106.191 192.265 105.954 192.578 105.762C192.899 105.57 193.299 105.433 193.78 105.353L196.185 104.957V105.894L194.033 106.255C193.616 106.327 193.311 106.459 193.119 106.652C192.935 106.844 192.843 107.08 192.843 107.361C192.843 107.625 192.947 107.846 193.155 108.022C193.371 108.198 193.64 108.287 193.961 108.287C194.369 108.287 194.722 108.202 195.018 108.034C195.323 107.858 195.559 107.621 195.728 107.325C195.904 107.028 195.992 106.7 195.992 106.339V104.692C195.992 104.34 195.86 104.055 195.595 103.839C195.339 103.614 194.998 103.502 194.574 103.502C194.205 103.502 193.876 103.598 193.588 103.791C193.307 103.975 193.099 104.223 192.963 104.536L191.989 104.031C192.109 103.734 192.302 103.47 192.566 103.238C192.831 102.997 193.139 102.809 193.492 102.673C193.844 102.536 194.213 102.468 194.598 102.468C195.095 102.468 195.531 102.564 195.908 102.757C196.285 102.941 196.577 103.201 196.786 103.538C197.002 103.867 197.11 104.251 197.11 104.692V109.092H196.016V107.866L196.221 107.938C196.084 108.194 195.9 108.419 195.668 108.611C195.435 108.804 195.163 108.956 194.85 109.068C194.538 109.18 194.197 109.236 193.828 109.236ZM203.833 109.236C203.224 109.236 202.675 109.088 202.186 108.792C201.705 108.495 201.324 108.09 201.044 107.577C200.763 107.064 200.623 106.491 200.623 105.858C200.623 105.209 200.763 104.632 201.044 104.127C201.324 103.614 201.705 103.209 202.186 102.913C202.675 102.616 203.224 102.468 203.833 102.468C204.37 102.468 204.846 102.584 205.263 102.817C205.68 103.041 206.009 103.346 206.249 103.73L206.069 104.007V99.9917H207.199V109.092H206.105V107.71L206.249 107.902C206.025 108.327 205.696 108.655 205.263 108.888C204.838 109.12 204.362 109.236 203.833 109.236ZM203.929 108.154C204.338 108.154 204.702 108.054 205.023 107.854C205.343 107.653 205.596 107.381 205.78 107.036C205.972 106.684 206.069 106.291 206.069 105.858C206.069 105.417 205.972 105.025 205.78 104.68C205.596 104.327 205.343 104.051 205.023 103.851C204.702 103.65 204.338 103.55 203.929 103.55C203.528 103.55 203.163 103.654 202.835 103.863C202.514 104.063 202.262 104.336 202.077 104.68C201.893 105.017 201.801 105.409 201.801 105.858C201.801 106.291 201.893 106.684 202.077 107.036C202.262 107.381 202.514 107.653 202.835 107.854C203.155 108.054 203.52 108.154 203.929 108.154ZM213.954 109.236C213.329 109.236 212.772 109.088 212.283 108.792C211.794 108.495 211.41 108.09 211.129 107.577C210.849 107.056 210.708 106.475 210.708 105.834C210.708 105.185 210.845 104.608 211.117 104.103C211.398 103.598 211.774 103.201 212.247 102.913C212.728 102.616 213.265 102.468 213.858 102.468C214.339 102.468 214.764 102.556 215.132 102.733C215.509 102.901 215.825 103.133 216.082 103.43C216.346 103.718 216.547 104.051 216.683 104.428C216.827 104.796 216.899 105.181 216.899 105.582C216.899 105.67 216.891 105.77 216.875 105.882C216.867 105.986 216.855 106.087 216.839 106.183H211.526V105.221H216.19L215.661 105.654C215.733 105.237 215.693 104.864 215.541 104.536C215.389 104.207 215.164 103.947 214.868 103.754C214.571 103.562 214.235 103.466 213.858 103.466C213.481 103.466 213.137 103.562 212.824 103.754C212.512 103.947 212.267 104.223 212.091 104.584C211.922 104.937 211.854 105.357 211.886 105.846C211.854 106.319 211.926 106.736 212.103 107.096C212.287 107.449 212.544 107.726 212.872 107.926C213.209 108.118 213.573 108.214 213.966 108.214C214.399 108.214 214.764 108.114 215.06 107.914C215.357 107.714 215.597 107.457 215.781 107.145L216.719 107.625C216.591 107.922 216.39 108.194 216.118 108.443C215.854 108.683 215.537 108.876 215.168 109.02C214.808 109.164 214.403 109.236 213.954 109.236ZM220.401 109.092V102.612H221.519V109.092H220.401ZM220.401 101.579V100.136H221.519V101.579H220.401ZM225.297 109.092V102.612H226.391V103.803L226.271 103.634C226.423 103.266 226.656 102.993 226.968 102.817C227.281 102.632 227.661 102.54 228.11 102.54H228.507V103.598H227.942C227.485 103.598 227.116 103.742 226.836 104.031C226.555 104.311 226.415 104.712 226.415 105.233V109.092H225.297ZM233.443 109.236C233.018 109.236 232.642 109.16 232.313 109.008C231.993 108.848 231.74 108.631 231.556 108.359C231.371 108.078 231.279 107.758 231.279 107.397C231.279 107.052 231.351 106.744 231.496 106.471C231.648 106.191 231.88 105.954 232.193 105.762C232.513 105.57 232.914 105.433 233.395 105.353L235.799 104.957V105.894L233.648 106.255C233.231 106.327 232.926 106.459 232.734 106.652C232.55 106.844 232.457 107.08 232.457 107.361C232.457 107.625 232.562 107.846 232.77 108.022C232.986 108.198 233.255 108.287 233.575 108.287C233.984 108.287 234.337 108.202 234.633 108.034C234.938 107.858 235.174 107.621 235.343 107.325C235.519 107.028 235.607 106.7 235.607 106.339V104.692C235.607 104.34 235.475 104.055 235.21 103.839C234.954 103.614 234.613 103.502 234.188 103.502C233.82 103.502 233.491 103.598 233.203 103.791C232.922 103.975 232.714 104.223 232.578 104.536L231.604 104.031C231.724 103.734 231.916 103.47 232.181 103.238C232.445 102.997 232.754 102.809 233.107 102.673C233.459 102.536 233.828 102.468 234.213 102.468C234.709 102.468 235.146 102.564 235.523 102.757C235.9 102.941 236.192 103.201 236.4 103.538C236.617 103.867 236.725 104.251 236.725 104.692V109.092H235.631V107.866L235.835 107.938C235.699 108.194 235.515 108.419 235.282 108.611C235.05 108.804 234.778 108.956 234.465 109.068C234.152 109.18 233.812 109.236 233.443 109.236ZM242.822 109.236C242.173 109.236 241.608 109.076 241.127 108.755C240.646 108.435 240.306 108.002 240.105 107.457L240.995 107.024C241.179 107.409 241.432 107.714 241.752 107.938C242.073 108.162 242.43 108.275 242.822 108.275C243.175 108.275 243.467 108.19 243.7 108.022C243.932 107.854 244.049 107.633 244.049 107.361C244.049 107.169 243.992 107.016 243.88 106.904C243.776 106.784 243.648 106.692 243.496 106.628C243.343 106.555 243.203 106.503 243.075 106.471L242.101 106.195C241.516 106.027 241.087 105.786 240.815 105.474C240.55 105.161 240.418 104.796 240.418 104.38C240.418 103.995 240.514 103.662 240.707 103.382C240.907 103.093 241.175 102.869 241.512 102.709C241.857 102.548 242.241 102.468 242.666 102.468C243.235 102.468 243.744 102.612 244.193 102.901C244.65 103.189 244.974 103.594 245.167 104.115L244.253 104.536C244.109 104.199 243.892 103.935 243.604 103.742C243.315 103.542 242.991 103.442 242.63 103.442C242.301 103.442 242.041 103.526 241.849 103.694C241.656 103.855 241.56 104.059 241.56 104.307C241.56 104.492 241.608 104.644 241.704 104.764C241.8 104.876 241.917 104.965 242.053 105.029C242.189 105.085 242.321 105.133 242.45 105.173L243.508 105.486C244.037 105.638 244.445 105.874 244.734 106.195C245.03 106.515 245.179 106.9 245.179 107.349C245.179 107.71 245.078 108.034 244.878 108.323C244.678 108.611 244.401 108.836 244.049 108.996C243.696 109.156 243.287 109.236 242.822 109.236ZM255.789 109.236C255.164 109.236 254.607 109.088 254.118 108.792C253.629 108.495 253.244 108.09 252.964 107.577C252.683 107.056 252.543 106.475 252.543 105.834C252.543 105.185 252.679 104.608 252.952 104.103C253.232 103.598 253.609 103.201 254.082 102.913C254.563 102.616 255.099 102.468 255.693 102.468C256.173 102.468 256.598 102.556 256.967 102.733C257.344 102.901 257.66 103.133 257.917 103.43C258.181 103.718 258.381 104.051 258.518 104.428C258.662 104.796 258.734 105.181 258.734 105.582C258.734 105.67 258.726 105.77 258.71 105.882C258.702 105.986 258.69 106.087 258.674 106.183H253.36V105.221H258.025L257.496 105.654C257.568 105.237 257.528 104.864 257.376 104.536C257.223 104.207 256.999 103.947 256.702 103.754C256.406 103.562 256.069 103.466 255.693 103.466C255.316 103.466 254.971 103.562 254.659 103.754C254.346 103.947 254.102 104.223 253.925 104.584C253.757 104.937 253.689 105.357 253.721 105.846C253.689 106.319 253.761 106.736 253.937 107.096C254.122 107.449 254.378 107.726 254.707 107.926C255.043 108.118 255.408 108.214 255.801 108.214C256.234 108.214 256.598 108.114 256.895 107.914C257.191 107.714 257.432 107.457 257.616 107.145L258.554 107.625C258.425 107.922 258.225 108.194 257.953 108.443C257.688 108.683 257.372 108.876 257.003 109.02C256.642 109.164 256.238 109.236 255.789 109.236ZM268.052 109.092V101.218H265.624V100.136H271.634V101.218H269.242V109.092H268.052ZM276.818 109.236C276.192 109.236 275.635 109.088 275.147 108.792C274.658 108.495 274.273 108.09 273.992 107.577C273.712 107.056 273.572 106.475 273.572 105.834C273.572 105.185 273.708 104.608 273.98 104.103C274.261 103.598 274.638 103.201 275.11 102.913C275.591 102.616 276.128 102.468 276.721 102.468C277.202 102.468 277.627 102.556 277.996 102.733C278.372 102.901 278.689 103.133 278.945 103.43C279.21 103.718 279.41 104.051 279.546 104.428C279.691 104.796 279.763 105.181 279.763 105.582C279.763 105.67 279.755 105.77 279.739 105.882C279.731 105.986 279.719 106.087 279.703 106.183H274.389V105.221H279.054L278.525 105.654C278.597 105.237 278.557 104.864 278.404 104.536C278.252 104.207 278.028 103.947 277.731 103.754C277.435 103.562 277.098 103.466 276.721 103.466C276.345 103.466 276 103.562 275.688 103.754C275.375 103.947 275.131 104.223 274.954 104.584C274.786 104.937 274.718 105.357 274.75 105.846C274.718 106.319 274.79 106.736 274.966 107.096C275.151 107.449 275.407 107.726 275.736 107.926C276.072 108.118 276.437 108.214 276.83 108.214C277.262 108.214 277.627 108.114 277.924 107.914C278.22 107.714 278.461 107.457 278.645 107.145L279.583 107.625C279.454 107.922 279.254 108.194 278.981 108.443C278.717 108.683 278.4 108.876 278.032 109.02C277.671 109.164 277.266 109.236 276.818 109.236ZM283.264 109.092V102.612H284.358V103.875L284.178 103.766C284.338 103.358 284.595 103.041 284.947 102.817C285.308 102.584 285.729 102.468 286.21 102.468C286.674 102.468 287.087 102.572 287.448 102.781C287.816 102.989 288.105 103.278 288.313 103.646C288.53 104.015 288.638 104.432 288.638 104.897V109.092H287.508V105.257C287.508 104.897 287.444 104.592 287.315 104.344C287.187 104.095 287.003 103.903 286.762 103.766C286.53 103.622 286.262 103.55 285.957 103.55C285.653 103.55 285.38 103.622 285.14 103.766C284.907 103.903 284.723 104.099 284.587 104.356C284.45 104.604 284.382 104.905 284.382 105.257V109.092H283.264ZM295.227 109.236C294.618 109.236 294.069 109.088 293.58 108.792C293.099 108.495 292.718 108.09 292.438 107.577C292.157 107.064 292.017 106.491 292.017 105.858C292.017 105.209 292.157 104.632 292.438 104.127C292.718 103.614 293.099 103.209 293.58 102.913C294.069 102.616 294.618 102.468 295.227 102.468C295.764 102.468 296.24 102.584 296.657 102.817C297.074 103.041 297.403 103.346 297.643 103.73L297.463 104.007V99.9917H298.593V109.092H297.499V107.71L297.643 107.902C297.419 108.327 297.09 108.655 296.657 108.888C296.232 109.12 295.756 109.236 295.227 109.236ZM295.323 108.154C295.732 108.154 296.096 108.054 296.417 107.854C296.737 107.653 296.99 107.381 297.174 107.036C297.366 106.684 297.463 106.291 297.463 105.858C297.463 105.417 297.366 105.025 297.174 104.68C296.99 104.327 296.737 104.051 296.417 103.851C296.096 103.65 295.732 103.55 295.323 103.55C294.922 103.55 294.557 103.654 294.229 103.863C293.908 104.063 293.656 104.336 293.471 104.68C293.287 105.017 293.195 105.409 293.195 105.858C293.195 106.291 293.287 106.684 293.471 107.036C293.656 107.381 293.908 107.653 294.229 107.854C294.549 108.054 294.914 108.154 295.323 108.154ZM304.266 109.236C303.841 109.236 303.465 109.16 303.136 109.008C302.816 108.848 302.563 108.631 302.379 108.359C302.194 108.078 302.102 107.758 302.102 107.397C302.102 107.052 302.174 106.744 302.319 106.471C302.471 106.191 302.703 105.954 303.016 105.762C303.337 105.57 303.737 105.433 304.218 105.353L306.622 104.957V105.894L304.471 106.255C304.054 106.327 303.749 106.459 303.557 106.652C303.373 106.844 303.28 107.08 303.28 107.361C303.28 107.625 303.385 107.846 303.593 108.022C303.809 108.198 304.078 108.287 304.398 108.287C304.807 108.287 305.16 108.202 305.456 108.034C305.761 107.858 305.997 107.621 306.166 107.325C306.342 107.028 306.43 106.7 306.43 106.339V104.692C306.43 104.34 306.298 104.055 306.033 103.839C305.777 103.614 305.436 103.502 305.012 103.502C304.643 103.502 304.314 103.598 304.026 103.791C303.745 103.975 303.537 104.223 303.401 104.536L302.427 104.031C302.547 103.734 302.739 103.47 303.004 103.238C303.268 102.997 303.577 102.809 303.93 102.673C304.282 102.536 304.651 102.468 305.036 102.468C305.532 102.468 305.969 102.564 306.346 102.757C306.723 102.941 307.015 103.201 307.223 103.538C307.44 103.867 307.548 104.251 307.548 104.692V109.092H306.454V107.866L306.658 107.938C306.522 108.194 306.338 108.419 306.105 108.611C305.873 108.804 305.601 108.956 305.288 109.068C304.975 109.18 304.635 109.236 304.266 109.236ZM313.645 109.236C312.996 109.236 312.431 109.076 311.95 108.755C311.469 108.435 311.129 108.002 310.928 107.457L311.818 107.024C312.002 107.409 312.255 107.714 312.575 107.938C312.896 108.162 313.253 108.275 313.645 108.275C313.998 108.275 314.291 108.19 314.523 108.022C314.755 107.854 314.872 107.633 314.872 107.361C314.872 107.169 314.815 107.016 314.703 106.904C314.599 106.784 314.471 106.692 314.319 106.628C314.166 106.555 314.026 106.503 313.898 106.471L312.924 106.195C312.339 106.027 311.91 105.786 311.638 105.474C311.373 105.161 311.241 104.796 311.241 104.38C311.241 103.995 311.337 103.662 311.53 103.382C311.73 103.093 311.998 102.869 312.335 102.709C312.68 102.548 313.064 102.468 313.489 102.468C314.058 102.468 314.567 102.612 315.016 102.901C315.473 103.189 315.797 103.594 315.99 104.115L315.076 104.536C314.932 104.199 314.715 103.935 314.427 103.742C314.138 103.542 313.814 103.442 313.453 103.442C313.124 103.442 312.864 103.526 312.672 103.694C312.479 103.855 312.383 104.059 312.383 104.307C312.383 104.492 312.431 104.644 312.527 104.764C312.624 104.876 312.74 104.965 312.876 105.029C313.012 105.085 313.144 105.133 313.273 105.173L314.331 105.486C314.86 105.638 315.268 105.874 315.557 106.195C315.853 106.515 316.002 106.9 316.002 107.349C316.002 107.71 315.901 108.034 315.701 108.323C315.501 108.611 315.224 108.836 314.872 108.996C314.519 109.156 314.11 109.236 313.645 109.236Z" fill="#313D28"/>
</svg>
