<svg width="85" height="11" viewBox="0 0 85 11" fill="none" xmlns="http://www.w3.org/2000/svg">
<path d="M0 10.7067V0.169723H1.92353V9.00948H6.43534V10.7067H0Z" fill="white"/>
<path d="M10.2678 10.8764C9.67378 10.8764 9.15518 10.7444 8.71202 10.4804C8.27828 10.2164 7.94355 9.84866 7.70782 9.37721C7.48153 8.90576 7.36838 8.35416 7.36838 7.72241V3.01259H9.22119V7.56683C9.22119 7.88742 9.28248 8.17029 9.40506 8.41545C9.53706 8.65117 9.72093 8.83975 9.95666 8.98119C10.2018 9.1132 10.4753 9.1792 10.777 9.1792C11.0787 9.1792 11.3474 9.1132 11.5832 8.98119C11.8189 8.83975 12.0028 8.64646 12.1348 8.4013C12.2668 8.15614 12.3328 7.86384 12.3328 7.5244V3.01259H14.1856V10.7067H12.4318V9.19334L12.5874 9.46207C12.4082 9.93352 12.1112 10.2871 11.6963 10.5228C11.2909 10.7586 10.8147 10.8764 10.2678 10.8764Z" fill="white"/>
<path d="M15.9079 10.7067V3.01259H17.6476V4.79468L17.4496 4.49767C17.591 3.94135 17.8739 3.52647 18.2982 3.25303C18.7225 2.97959 19.2222 2.84286 19.7974 2.84286C20.4291 2.84286 20.9855 3.00787 21.4663 3.33789C21.9472 3.66791 22.2584 4.10164 22.3998 4.6391L21.8765 4.68153C22.1122 4.06864 22.4658 3.61133 22.9373 3.3096C23.4087 2.99844 23.9509 2.84286 24.5638 2.84286C25.1107 2.84286 25.5963 2.96544 26.0206 3.2106C26.4543 3.45575 26.7938 3.79992 27.0389 4.24308C27.2841 4.67682 27.4067 5.18127 27.4067 5.75645V10.7067H25.5538V6.1949C25.5538 5.85545 25.4926 5.56315 25.37 5.318C25.2474 5.07284 25.0777 4.88426 24.8608 4.75225C24.6439 4.61081 24.3799 4.5401 24.0688 4.5401C23.7765 4.5401 23.5172 4.61081 23.2909 4.75225C23.0646 4.88426 22.8901 5.07284 22.7676 5.318C22.645 5.56315 22.5837 5.85545 22.5837 6.1949V10.7067H20.7309V6.1949C20.7309 5.85545 20.6696 5.56315 20.547 5.318C20.4244 5.07284 20.25 4.88426 20.0237 4.75225C19.8068 4.61081 19.5475 4.5401 19.2458 4.5401C18.9535 4.5401 18.6942 4.61081 18.4679 4.75225C18.2416 4.88426 18.0672 5.07284 17.9446 5.318C17.822 5.56315 17.7607 5.85545 17.7607 6.1949V10.7067H15.9079Z" fill="white"/>
<path d="M32.7364 10.8764C31.982 10.8764 31.2937 10.702 30.6714 10.3531C30.0585 10.0042 29.5682 9.52807 29.2005 8.92461C28.8422 8.32115 28.663 7.63283 28.663 6.85965C28.663 6.08646 28.8422 5.39814 29.2005 4.79468C29.5682 4.19122 30.0585 3.71505 30.6714 3.36618C31.2843 3.0173 31.9726 2.84286 32.7364 2.84286C33.4907 2.84286 34.1743 3.0173 34.7872 3.36618C35.4001 3.71505 35.8857 4.19122 36.244 4.79468C36.6117 5.38871 36.7956 6.07704 36.7956 6.85965C36.7956 7.63283 36.6117 8.32115 36.244 8.92461C35.8762 9.52807 35.3859 10.0042 34.773 10.3531C34.1602 10.702 33.4813 10.8764 32.7364 10.8764ZM32.7364 9.1792C33.1512 9.1792 33.5143 9.08019 33.8254 8.88218C34.146 8.68417 34.3959 8.41073 34.575 8.06185C34.7636 7.70355 34.8579 7.30281 34.8579 6.85965C34.8579 6.40705 34.7636 6.01103 34.575 5.67159C34.3959 5.32271 34.146 5.04927 33.8254 4.85126C33.5143 4.64382 33.1512 4.5401 32.7364 4.5401C32.3121 4.5401 31.9396 4.64382 31.619 4.85126C31.2984 5.04927 31.0438 5.32271 30.8553 5.67159C30.6761 6.01103 30.5865 6.40705 30.5865 6.85965C30.5865 7.30281 30.6761 7.70355 30.8553 8.06185C31.0438 8.41073 31.2984 8.68417 31.619 8.88218C31.9396 9.08019 32.3121 9.1792 32.7364 9.1792Z" fill="white"/>
<path d="M44.6322 10.8764C43.9628 10.8764 43.3405 10.7539 42.7653 10.5087C42.1995 10.2635 41.7092 9.9241 41.2944 9.49036C40.8889 9.04719 40.5919 8.53331 40.4033 7.94871L42.0015 7.25567C42.2561 7.85913 42.6239 8.3353 43.1047 8.68417C43.5856 9.02362 44.1278 9.19334 44.7312 9.19334C45.0707 9.19334 45.363 9.14148 45.6082 9.03776C45.8627 8.92461 46.056 8.77375 46.188 8.58517C46.3295 8.39659 46.4002 8.17029 46.4002 7.90627C46.4002 7.59512 46.3059 7.34053 46.1173 7.14252C45.9382 6.93508 45.6647 6.77479 45.297 6.66164L43.2745 6.01103C42.4541 5.75645 41.8365 5.37457 41.4216 4.8654C41.0068 4.35623 40.7993 3.75748 40.7993 3.06916C40.7993 2.4657 40.9455 1.93296 41.2378 1.47093C41.5395 1.00891 41.9544 0.650605 42.4824 0.39602C43.0199 0.132006 43.6328 0 44.3211 0C44.9528 0 45.5327 0.113148 46.0607 0.339446C46.5888 0.556315 47.0414 0.86276 47.4185 1.25878C47.8051 1.64537 48.0927 2.10268 48.2813 2.63071L46.6972 3.33789C46.4898 2.80986 46.1786 2.40441 45.7637 2.12154C45.3489 1.82924 44.868 1.68309 44.3211 1.68309C44.0005 1.68309 43.7176 1.73966 43.4725 1.85281C43.2273 1.95653 43.034 2.1074 42.8926 2.30541C42.7606 2.49399 42.6946 2.72029 42.6946 2.9843C42.6946 3.2766 42.7889 3.5359 42.9774 3.7622C43.166 3.97907 43.4536 4.14879 43.8402 4.27137L45.7779 4.87954C46.6171 5.15299 47.2441 5.53015 47.659 6.01103C48.0833 6.49191 48.2954 7.08595 48.2954 7.79313C48.2954 8.39659 48.1399 8.92933 47.8287 9.39135C47.5175 9.85338 47.0885 10.2164 46.5416 10.4804C45.9947 10.7444 45.3583 10.8764 44.6322 10.8764Z" fill="white"/>
<path d="M53.3795 10.7916C52.512 10.7916 51.8379 10.5558 51.357 10.0844C50.8855 9.60351 50.6498 8.92933 50.6498 8.06185V4.66739H49.3203V3.01259H49.4617C49.8389 3.01259 50.1312 2.91358 50.3386 2.71557C50.5461 2.51756 50.6498 2.22997 50.6498 1.85281V1.25878H52.5026V3.01259H54.2706V4.66739H52.5026V7.96285C52.5026 8.21743 52.545 8.4343 52.6299 8.61345C52.7242 8.79261 52.8656 8.92933 53.0542 9.02362C53.2522 9.11791 53.5021 9.16506 53.8038 9.16506C53.8698 9.16506 53.9453 9.16034 54.0301 9.15091C54.1244 9.14148 54.214 9.13205 54.2988 9.12263V10.7067C54.1668 10.7256 54.016 10.7444 53.8462 10.7633C53.6765 10.7821 53.5209 10.7916 53.3795 10.7916Z" fill="white"/>
<path d="M58.4583 10.8764C57.8642 10.8764 57.3457 10.7444 56.9025 10.4804C56.4687 10.2164 56.134 9.84866 55.8983 9.37721C55.672 8.90576 55.5588 8.35416 55.5588 7.72241V3.01259H57.4117V7.56683C57.4117 7.88742 57.4729 8.17029 57.5955 8.41545C57.7275 8.65117 57.9114 8.83975 58.1471 8.98119C58.3923 9.1132 58.6657 9.1792 58.9674 9.1792C59.2692 9.1792 59.5379 9.1132 59.7736 8.98119C60.0094 8.83975 60.1932 8.64646 60.3252 8.4013C60.4572 8.15614 60.5232 7.86384 60.5232 7.5244V3.01259H62.3761V10.7067H60.6222V9.19334L60.7778 9.46207C60.5987 9.93352 60.3017 10.2871 59.8868 10.5228C59.4813 10.7586 59.0052 10.8764 58.4583 10.8764Z" fill="white"/>
<path d="M67.6767 10.8764C66.9318 10.8764 66.2671 10.702 65.6824 10.3531C65.0978 9.99481 64.6358 9.50922 64.2964 8.89633C63.9569 8.28344 63.7872 7.60454 63.7872 6.85965C63.7872 6.10532 63.9569 5.42643 64.2964 4.82297C64.6358 4.21951 65.0978 3.73863 65.6824 3.38032C66.2765 3.02202 66.9365 2.84286 67.6626 2.84286C68.2472 2.84286 68.7658 2.96073 69.2184 3.19645C69.6804 3.42275 70.0434 3.74334 70.3074 4.15822L70.0245 4.5401V0H71.8773V10.7067H70.1236V9.22163L70.3216 9.58936C70.0575 10.0042 69.6898 10.3248 69.2184 10.5511C68.7469 10.768 68.233 10.8764 67.6767 10.8764ZM67.8747 9.1792C68.299 9.1792 68.6715 9.08019 68.9921 8.88218C69.3126 8.68417 69.5625 8.41073 69.7417 8.06185C69.9303 7.71298 70.0245 7.31224 70.0245 6.85965C70.0245 6.41648 69.9303 6.02046 69.7417 5.67159C69.5625 5.31328 69.3126 5.03512 68.9921 4.83711C68.6715 4.6391 68.299 4.5401 67.8747 4.5401C67.4598 4.5401 67.0874 4.64382 66.7574 4.85126C66.4274 5.04927 66.168 5.32271 65.9795 5.67159C65.8003 6.01103 65.7107 6.40705 65.7107 6.85965C65.7107 7.31224 65.8003 7.71298 65.9795 8.06185C66.168 8.41073 66.4274 8.68417 66.7574 8.88218C67.0874 9.08019 67.4598 9.1792 67.8747 9.1792Z" fill="white"/>
<path d="M73.6011 10.7067V3.01259H75.4539V10.7067H73.6011ZM73.6011 2.14983V0.169723H75.4539V2.14983H73.6011Z" fill="white"/>
<path d="M80.9268 10.8764C80.1725 10.8764 79.4842 10.702 78.8619 10.3531C78.249 10.0042 77.7587 9.52807 77.3909 8.92461C77.0326 8.32115 76.8535 7.63283 76.8535 6.85965C76.8535 6.08646 77.0326 5.39814 77.3909 4.79468C77.7587 4.19122 78.249 3.71505 78.8619 3.36618C79.4748 3.0173 80.1631 2.84286 80.9268 2.84286C81.6811 2.84286 82.3648 3.0173 82.9776 3.36618C83.5905 3.71505 84.0761 4.19122 84.4344 4.79468C84.8022 5.38871 84.986 6.07704 84.986 6.85965C84.986 7.63283 84.8022 8.32115 84.4344 8.92461C84.0667 9.52807 83.5764 10.0042 82.9635 10.3531C82.3506 10.702 81.6717 10.8764 80.9268 10.8764ZM80.9268 9.1792C81.3417 9.1792 81.7047 9.08019 82.0159 8.88218C82.3365 8.68417 82.5864 8.41073 82.7655 8.06185C82.9541 7.70355 83.0484 7.30281 83.0484 6.85965C83.0484 6.40705 82.9541 6.01103 82.7655 5.67159C82.5864 5.32271 82.3365 5.04927 82.0159 4.85126C81.7047 4.64382 81.3417 4.5401 80.9268 4.5401C80.5025 4.5401 80.1301 4.64382 79.8095 4.85126C79.4889 5.04927 79.2343 5.32271 79.0457 5.67159C78.8666 6.01103 78.777 6.40705 78.777 6.85965C78.777 7.30281 78.8666 7.70355 79.0457 8.06185C79.2343 8.41073 79.4889 8.68417 79.8095 8.88218C80.1301 9.08019 80.5025 9.1792 80.9268 9.1792Z" fill="white"/>
</svg>
